<svg width="912" height="473" viewBox="0 0 912 473" fill="none" xmlns="http://www.w3.org/2000/svg">
<g clip-path="url(#clip0_101_2)">
<path d="M81.9278 51.3402C94.0241 51.3402 102.876 53.7045 108.485 58.433C114.203 63.0515 117.062 70.2543 117.062 80.0412C117.062 89.7182 114.203 96.866 108.485 101.485C102.766 105.993 93.9691 108.247 82.0928 108.247H67.9072V132H54.2165V51.3402H81.9278ZM83.5773 96.0412C90.8351 96.0412 95.8935 94.6667 98.7526 91.9175C101.722 89.1684 103.206 84.8247 103.206 78.8866C103.206 73.3883 101.502 69.4845 98.0928 67.1753C94.6839 64.866 89.1856 63.7113 81.5979 63.7113H67.9072V96.0412H83.5773ZM172.157 61.732C164.13 61.732 157.367 64.5911 151.869 70.3093C146.37 76.0275 143.621 82.9553 143.621 91.0928C143.621 99.2302 146.37 106.158 151.869 111.876C157.367 117.485 164.13 120.289 172.157 120.289C180.185 120.289 186.948 117.485 192.446 111.876C197.944 106.158 200.693 99.2302 200.693 91.0928C200.693 82.9553 197.944 76.0275 192.446 70.3093C186.948 64.5911 180.185 61.732 172.157 61.732ZM172.157 132.825C160.061 132.825 149.944 128.866 141.807 120.948C133.669 112.921 129.601 102.969 129.601 91.0928C129.601 79.2165 133.669 69.3196 141.807 61.4021C149.944 53.3746 160.061 49.3608 172.157 49.3608C184.254 49.3608 194.37 53.3746 202.508 61.4021C210.645 69.3196 214.714 79.2165 214.714 91.0928C214.714 102.969 210.59 112.866 202.343 120.784C194.095 128.811 184.034 132.825 172.157 132.825ZM258.747 109.402L276.727 51.3402H288.933L306.912 109.402L327.201 51.3402H341.881L313.675 132H300.149L283.325 76.7423H282.335L265.345 132H251.82L223.613 51.3402H238.294L258.747 109.402ZM412.946 51.3402V64.0412H369.895V85.4845H408.493V97.5258H369.895V119.134H414.266V132H356.204V51.3402H412.946ZM480.283 102.639L501.396 132H484.077L464.778 104.784H446.963V132H433.273V51.3402H463.293C475.5 51.3402 484.242 53.4295 489.52 57.6082C494.908 61.677 497.603 68.3299 497.603 77.567C497.603 90.8729 491.829 99.2302 480.283 102.639ZM463.788 92.5773C471.376 92.5773 476.599 91.4227 479.458 89.1134C482.317 86.8041 483.747 82.9003 483.747 77.4021C483.747 72.1237 482.317 68.5498 479.458 66.6804C476.599 64.701 471.486 63.7113 464.118 63.7113H446.963V92.5773H463.788ZM575.678 51.3402V64.0412H532.626V85.4845H571.224V97.5258H532.626V119.134H576.997V132H518.935V51.3402H575.678ZM623.715 51.3402C638.121 51.3402 649.227 54.8591 657.035 61.8969C664.842 68.8247 668.746 78.6117 668.746 91.2577C668.746 104.124 664.897 114.131 657.2 121.278C649.502 128.426 638.011 132 622.726 132H596.004V51.3402H623.715ZM623.22 63.8763H609.695V119.134H624.705C634.602 119.134 642.135 116.825 647.303 112.206C652.471 107.478 655.056 100.605 655.056 91.5876C655.056 73.1134 644.444 63.8763 623.22 63.8763ZM721.079 132V51.3402H752.419C763.746 51.3402 771.443 53.7594 775.512 58.5979C779.141 62.6667 780.955 67.3402 780.955 72.6186C780.955 78.9966 778.976 83.7251 775.017 86.8041C773.698 87.7938 771.718 88.8935 769.079 90.1031C774.137 91.2027 778.096 93.457 780.955 96.866C783.924 100.275 785.409 104.509 785.409 109.567C785.409 115.945 783.1 121.278 778.481 125.567C773.972 129.856 766.605 132 756.378 132H721.079ZM734.77 84.8247H751.924C761.821 84.8247 766.77 81.4708 766.77 74.7629C766.77 70.9141 765.56 68.1649 763.141 66.5155C760.832 64.756 757.148 63.8763 752.089 63.8763H734.77V84.8247ZM734.77 119.464H756.048C761.326 119.464 765.23 118.639 767.759 116.99C770.289 115.23 771.553 112.261 771.553 108.082C771.553 100.935 765.835 97.3608 754.399 97.3608H734.77V119.464ZM835.755 132H821.9V100.165L791.879 51.3402H806.889L828.828 87.9588L850.931 51.3402H865.776L835.755 100.165V132Z" fill="white"/>
<path d="M23 333.5L55 278.5H64.5L68 286L40.5 333.5L68 382L63.5 389H55L23 333.5Z" fill="white"/>
<path d="M227 286.5L234 282.5V273L178 240L121 273V396.5L177 428.5L234.5 395.5V387L226.5 383L177 411.5L136 387V282.5L178 258L227 286.5Z" fill="white"/>
<path d="M358 282.5L316 258V240.5L372.5 273.5V396L315.5 428.5L259.5 396V273.5L315.5 241V258L274.5 282.5V387L316.5 411.5L358 387V282.5Z" fill="white"/>
<path d="M412.5 273.5L397.5 265V423.5L405.5 428.5L511 367V301.5L405 240.5L397.5 245.5V254L496 311V359L412.5 407V273.5Z" fill="white"/>
<path d="M641.5 286L648.5 282V272.5L593 240.5L534.5 274L536 347.5L551 338.5V282L593 258L641.5 286Z" fill="white"/>
<path d="M551 367.5V376L536 367.5V359L592.5 326L600 330.5V338.5L551 367.5Z" fill="white"/>
<path d="M23 333.5L55 278.5H64.5L68 286L40.5 333.5L68 382L63.5 389H55L23 333.5Z" stroke="white"/>
<path d="M227 286.5L234 282.5V273L178 240L121 273V396.5L177 428.5L234.5 395.5V387L226.5 383L177 411.5L136 387V282.5L178 258L227 286.5Z" stroke="white"/>
<path d="M358 282.5L316 258V240.5L372.5 273.5V396L315.5 428.5L259.5 396V273.5L315.5 241V258L274.5 282.5V387L316.5 411.5L358 387V282.5Z" stroke="white"/>
<path d="M412.5 273.5L397.5 265V423.5L405.5 428.5L511 367V301.5L405 240.5L397.5 245.5V254L496 311V359L412.5 407V273.5Z" stroke="white"/>
<path d="M641.5 286L648.5 282V272.5L593 240.5L534.5 274L536 347.5L551 338.5V282L593 258L641.5 286Z" stroke="white"/>
<path d="M551 367.5V376L536 367.5V359L592.5 326L600 330.5V338.5L551 367.5Z" stroke="white"/>
<path d="M591 411L536 379V395.5L591 429L650 395.5V387.5L640.5 382.5L591 411Z" fill="white"/>
<path d="M673.5 424V265L689 274V407L772 358.5V311L673.5 253V244.5L681.5 241L787 302V367.5L681 429L673.5 424Z" fill="white"/>
<path d="M848.5 333.5L821.5 285.5L825 278.5H834.5L866.5 333.5L834.5 389H825L821.5 381L848.5 333.5Z" fill="white"/>
<path d="M285 294V289H313.5V294H285Z" fill="white"/>
<path d="M329 297.5H285V302.5H329V297.5Z" fill="white"/>
<path d="M305 310H285V305H305V310Z" fill="white"/>
<path d="M285 313.5V318.5H321.5V313.5H285Z" fill="white"/>
<path d="M336 327H285V322H336V327Z" fill="white"/>
<path d="M305 331H285V336H305V331Z" fill="white"/>
<path d="M341.5 345H285V340H341.5V345Z" fill="white"/>
<path d="M341.5 362.5H285V357.5H341.5V362.5Z" fill="white"/>
<path d="M341.5 366H285V371H341.5V366Z" fill="white"/>
<path d="M285 380V375H313.5V380H285Z" fill="white"/>
</g>
<defs>
<clipPath id="clip0_101_2">
<rect width="912" height="473" fill="white"/>
</clipPath>
</defs>
</svg>
