<svg width="1749" height="632" viewBox="0 0 1749 632" fill="none" xmlns="http://www.w3.org/2000/svg">
<g clip-path="url(#clip0_601_2)">
<path d="M342.959 5.05154C360.347 5.05154 373.072 8.45016 381.134 15.2474C389.354 21.8866 393.464 32.2405 393.464 46.3093C393.464 60.2199 389.354 70.4948 381.134 77.134C372.914 83.6151 360.268 86.8557 343.196 86.8557H322.804V121H303.124V5.05154H342.959ZM345.33 69.3093C355.763 69.3093 363.034 67.3333 367.144 63.3814C371.412 59.4296 373.546 53.1856 373.546 44.6495C373.546 36.7457 371.096 31.134 366.196 27.8144C361.296 24.4948 353.392 22.8351 342.485 22.8351H322.804V69.3093H345.33ZM472.664 19.9897C461.124 19.9897 451.403 24.0997 443.499 32.3196C435.595 40.5395 431.643 50.4983 431.643 62.1959C431.643 73.8935 435.595 83.8522 443.499 92.0722C451.403 100.134 461.124 104.165 472.664 104.165C484.203 104.165 493.925 100.134 501.829 92.0722C509.732 83.8522 513.684 73.8935 513.684 62.1959C513.684 50.4983 509.732 40.5395 501.829 32.3196C493.925 24.0997 484.203 19.9897 472.664 19.9897ZM472.664 122.186C455.275 122.186 440.732 116.495 429.035 105.113C417.337 93.5739 411.488 79.268 411.488 62.1959C411.488 45.1237 417.337 30.8969 429.035 19.5155C440.732 7.97594 455.275 2.20618 472.664 2.20618C490.052 2.20618 504.595 7.97594 516.293 19.5155C527.99 30.8969 533.839 45.1237 533.839 62.1959C533.839 79.268 527.911 93.4948 516.055 104.876C504.2 116.416 489.736 122.186 472.664 122.186ZM597.137 88.5155L622.982 5.05154H640.529L666.374 88.5155L695.539 5.05154H716.642L676.096 121H656.652L632.467 41.567H631.044L606.621 121H587.178L546.632 5.05154H567.735L597.137 88.5155ZM818.798 5.05154V23.3093H756.911V54.134H812.396V71.4433H756.911V102.505H820.695V121H737.231V5.05154H818.798ZM915.594 78.7938L945.945 121H921.048L893.306 81.8763H867.697V121H848.017V5.05154H891.172C908.718 5.05154 921.285 8.05498 928.873 14.0619C936.618 19.9107 940.491 29.4742 940.491 42.7526C940.491 61.8797 932.192 73.8935 915.594 78.7938ZM891.883 64.3299C902.79 64.3299 910.299 62.6701 914.409 59.3505C918.519 56.0309 920.574 50.4192 920.574 42.5155C920.574 34.9278 918.519 29.7904 914.409 27.1031C910.299 24.2577 902.948 22.8351 892.357 22.8351H867.697V64.3299H891.883ZM1052.72 5.05154V23.3093H990.837V54.134H1046.32V71.4433H990.837V102.505H1054.62V121H971.157V5.05154H1052.72ZM1121.78 5.05154C1142.49 5.05154 1158.45 10.11 1169.68 20.2268C1180.9 30.1856 1186.51 44.2543 1186.51 62.433C1186.51 80.9278 1180.98 95.3127 1169.91 105.588C1158.85 115.863 1142.33 121 1120.36 121H1081.94V5.05154H1121.78ZM1121.07 23.0722H1101.62V102.505H1123.2C1137.43 102.505 1148.26 99.1856 1155.69 92.5464C1163.12 85.7491 1166.83 75.8694 1166.83 62.9072C1166.83 36.3505 1151.58 23.0722 1121.07 23.0722ZM1261.74 121V5.05154H1306.79C1323.07 5.05154 1334.14 8.5292 1339.99 15.4845C1345.2 21.3333 1347.81 28.0515 1347.81 35.6392C1347.81 44.8076 1344.97 51.6048 1339.27 56.0309C1337.38 57.4536 1334.53 59.0344 1330.74 60.7732C1338.01 62.3539 1343.7 65.5945 1347.81 70.4948C1352.08 75.3952 1354.21 81.4811 1354.21 88.7526C1354.21 97.921 1350.89 105.588 1344.25 111.753C1337.77 117.918 1327.18 121 1312.48 121H1261.74ZM1281.42 53.1856H1306.08C1320.31 53.1856 1327.42 48.3643 1327.42 38.7216C1327.42 33.189 1325.68 29.2371 1322.2 26.866C1318.88 24.3368 1313.59 23.0722 1306.32 23.0722H1281.42V53.1856ZM1281.42 102.979H1312.01C1319.59 102.979 1325.21 101.794 1328.84 99.4227C1332.48 96.8935 1334.3 92.6254 1334.3 86.6186C1334.3 76.3436 1326.08 71.2062 1309.64 71.2062H1281.42V102.979ZM1426.59 121H1406.67V75.2371L1363.51 5.05154H1385.09L1416.63 57.6907L1448.4 5.05154H1469.74L1426.59 75.2371V121Z" fill="black"/>
<path d="M0 433.944L66.3533 319.859H86.052L93.3093 335.416L36.287 433.944L93.3093 534.546L83.9784 549.066H66.3533L0 433.944Z" fill="black"/>
<path d="M423.002 336.454L437.517 328.156V308.451L321.399 240L203.207 308.451V564.623L319.325 631L438.554 562.549V544.918L421.966 536.621L319.325 595.737L234.31 544.918V328.156L321.399 277.337L423.002 336.454Z" fill="black"/>
<path d="M694.636 328.156L607.548 277.337V241.037L724.703 309.488V563.586L606.511 631L490.392 563.586V309.488L606.511 242.074V277.337L521.496 328.156V544.918L608.584 595.737L694.636 544.918V328.156Z" fill="black"/>
<path d="M807.644 309.488L776.541 291.857V620.629L793.13 631L1011.89 503.432V367.568L792.093 241.037L776.541 251.408V269.04L980.785 387.273V486.838L807.644 586.403V309.488Z" fill="black"/>
<path d="M1282.49 335.416L1297 327.119V307.414L1181.92 241.037L1060.62 310.525L1063.73 462.984L1094.83 444.316V327.119L1181.92 277.337L1282.49 335.416Z" fill="black"/>
<path d="M1094.83 504.469V522.101L1063.73 504.469V486.838L1180.88 418.387L1196.43 427.721V444.316L1094.83 504.469Z" fill="black"/>
<path d="M0 433.944L66.3533 319.859H86.052L93.3093 335.416L36.287 433.944L93.3093 534.546L83.9784 549.066H66.3533L0 433.944Z" stroke="black"/>
<path d="M423.002 336.454L437.517 328.156V308.451L321.399 240L203.207 308.451V564.623L319.325 631L438.554 562.549V544.918L421.966 536.621L319.325 595.737L234.31 544.918V328.156L321.399 277.337L423.002 336.454Z" stroke="black"/>
<path d="M694.636 328.156L607.548 277.337V241.037L724.703 309.488V563.586L606.511 631L490.392 563.586V309.488L606.511 242.074V277.337L521.496 328.156V544.918L608.584 595.737L694.636 544.918V328.156Z" stroke="black"/>
<path d="M807.644 309.488L776.541 291.857V620.629L793.13 631L1011.89 503.432V367.568L792.093 241.037L776.541 251.408V269.04L980.785 387.273V486.838L807.644 586.403V309.488Z" stroke="black"/>
<path d="M1282.49 335.416L1297 327.119V307.414L1181.92 241.037L1060.62 310.525L1063.73 462.984L1094.83 444.316V327.119L1181.92 277.337L1282.49 335.416Z" stroke="black"/>
<path d="M1094.83 504.469V522.101L1063.73 504.469V486.838L1180.88 418.387L1196.43 427.721V444.316L1094.83 504.469Z" stroke="black"/>
<path d="M1177.63 594.66L1063.56 528.277V562.505L1177.63 632L1299.99 562.505V545.91L1280.29 535.537L1177.63 594.66Z" fill="black"/>
<path d="M1348.73 621.628V291.787L1380.87 310.457V586.362L1553.01 485.75V387.213L1348.73 266.894V249.261L1365.32 242L1584.12 368.543V504.42L1364.28 632L1348.73 621.628Z" fill="black"/>
<path d="M1711.67 433.888L1655.67 334.314L1662.93 319.793H1682.63L1749 433.888L1682.63 549.021H1662.93L1655.67 532.426L1711.67 433.888Z" fill="black"/>
<path d="M543 351.947V341.574H602.107V351.947H543Z" fill="black"/>
<path d="M634.254 359.207H543V369.58H634.254V359.207Z" fill="black"/>
<path d="M584.479 385.138H543V374.766H584.479V385.138Z" fill="black"/>
<path d="M543 392.399V402.771H618.699V392.399H543Z" fill="black"/>
<path d="M648.771 420.404H543V410.032H648.771V420.404Z" fill="black"/>
<path d="M584.479 428.702H543V439.074H584.479V428.702Z" fill="black"/>
<path d="M660.178 457.745H543V447.372H660.178V457.745Z" fill="black"/>
<path d="M660.178 494.048H543V483.676H660.178V494.048Z" fill="black"/>
<path d="M660.178 501.309H543V511.681H660.178V501.309Z" fill="black"/>
<path d="M543 530.351V519.979H602.107V530.351H543Z" fill="black"/>
</g>
<defs>
<clipPath id="clip0_601_2">
<rect width="1749" height="632" fill="white"/>
</clipPath>
</defs>
</svg>
