<svg width="288" height="66" viewBox="0 0 288 66" fill="none" xmlns="http://www.w3.org/2000/svg">
<g clip-path="url(#clip0_302_335)">
<path d="M148.709 28.1547C148.582 27.0811 148.203 26.0075 147.825 24.9971C147.761 24.8708 147.761 24.8077 147.698 24.6814C147.509 24.113 147.256 23.5447 147.067 23.0395C146.814 22.408 146.498 21.7765 146.246 21.0818C145.93 20.3872 145.614 19.7557 145.299 19.1242C144.983 18.4927 144.667 17.9243 144.288 17.3559C144.099 17.0402 143.909 16.7244 143.657 16.4718C143.404 16.1561 143.151 15.9035 142.899 15.6509C142.836 15.5877 142.773 15.4614 142.709 15.3983C142.583 15.2088 142.457 14.9562 142.267 14.7668C141.952 14.3879 141.636 13.9458 141.32 13.5669C140.752 12.8723 140.057 12.3039 139.362 11.7356C138.352 10.9146 137.278 10.22 136.142 9.5253C135.005 8.76749 133.805 8.13599 132.732 7.37819C131.784 6.74668 130.837 6.17833 129.827 5.67313C128.816 5.16792 127.869 4.53642 126.859 4.03122C125.722 3.46286 124.585 3.02081 123.449 2.51561C121.933 1.88411 120.354 1.5052 118.775 1.31575C117.386 1.1263 115.934 1 114.481 1C113.597 1 112.65 1 111.766 1C110.818 1 109.808 1.06315 108.861 1.1263C107.724 1.2526 106.587 1.3789 105.451 1.56835C104.251 1.7578 103.114 1.88411 101.914 2.13671C100.967 2.32616 100.083 2.51561 99.1357 2.70506C98.7568 2.76821 98.3779 2.70506 97.999 2.76821C97.3675 2.89451 96.7991 3.02081 96.2307 3.27341C93.0732 4.59957 90.1683 6.30463 87.3897 8.32544C85.8741 9.399 84.9268 10.9146 84.6111 12.746C84.4216 14.009 83.7901 15.0825 82.906 15.9666C82.2114 16.5981 81.5167 17.2296 80.8852 17.9243C79.4959 19.4399 78.1066 21.0187 76.7173 22.5974C76.4015 22.9763 76.2121 22.9763 75.8963 22.6606C73.7492 20.8292 71.6021 18.9347 69.455 17.1033C69.3918 17.0402 69.3287 16.977 69.2024 16.9139C69.1392 16.977 69.1392 17.0402 69.0761 17.1033C68.6972 16.7244 68.3814 16.2824 68.0025 15.9666C66.108 14.2616 64.2135 12.6197 62.319 10.9146C61.2454 9.96735 60.1087 9.0201 58.972 8.26229C57.8353 7.37819 56.5723 6.68353 55.3725 5.98888C53.92 5.10477 52.3412 4.53642 50.8256 3.90492C48.8048 3.08396 46.6577 2.32616 44.5106 2.01041C42.8055 1.69465 41.0373 1.56835 39.3323 1.3789C38.1956 1.2526 37.0589 1.31575 35.9221 1.3789C35.4169 1.44205 34.9117 1.56835 34.4065 1.56835C33.1435 1.6315 31.9437 1.82095 30.7438 2.19986C30.1123 2.32616 29.4177 2.38931 28.723 2.26301C27.2706 2.01041 25.8812 1.7578 24.3656 1.94726C23.4184 2.07356 22.4711 2.19986 21.6502 2.57876C21.4607 2.64191 21.2713 2.70506 21.0818 2.76821C19.6294 3.08396 18.3032 3.65232 17.0402 4.47327C16.5981 4.72587 16.2192 5.04162 16.0298 5.48368C16.0298 5.54683 15.9666 5.67313 16.0298 5.67313C16.0929 5.73628 16.1561 5.73628 16.2824 5.73628C16.3455 5.73628 16.4087 5.67313 16.4718 5.60998C16.5981 5.54683 16.7244 5.42053 16.9139 5.54683C16.9139 5.54683 16.977 5.54683 17.0402 5.54683C17.5454 5.42053 18.0506 5.23107 18.6189 5.10477C19.061 4.97847 19.5031 4.85217 19.9451 4.72587V4.78902C19.882 4.85217 19.8188 4.97847 19.7557 5.04162C19.061 5.73628 18.3663 6.49408 17.8611 7.31504C17.5454 7.82024 17.2296 8.19914 16.7244 8.45174C14.9562 9.58845 13.2512 10.7252 11.6724 12.1776C11.2304 12.5565 10.8515 12.9354 10.4094 13.3143C10.3463 13.3775 10.2831 13.4406 10.1568 13.4406C9.71475 13.5038 9.46215 13.7564 9.1464 14.0721C8.70434 14.451 8.32544 14.8931 7.88339 15.272C6.74668 16.3455 5.79943 17.5454 5.10477 18.8716C4.47327 20.0083 3.90492 21.145 3.33656 22.3448C2.83136 23.3552 2.38931 24.3025 1.8841 25.3129C1.7578 25.6286 1.69465 26.0075 1.6315 26.3233C1.56835 26.8916 1.31575 27.3969 1.18945 27.9021C1.06315 28.3441 1 28.723 1 29.1651C1 30.3649 1.3789 31.5016 1.7578 32.6383C2.01041 33.333 2.32616 33.9645 2.89451 34.5328C3.33656 35.038 3.71547 35.5432 3.90492 36.2379C4.15752 37.3115 4.47327 38.3219 4.78902 39.3954C5.42053 41.6688 6.30463 43.8159 7.31504 45.9631C8.32544 48.047 9.6516 49.8784 11.2304 51.5203C12.0513 52.4044 12.9986 53.1622 13.9458 53.9832C14.3247 54.2989 14.6405 54.6778 15.0194 54.9304C15.9035 55.4988 16.7244 56.1303 17.6717 56.6355C18.7453 57.2038 19.8188 57.7722 20.8924 58.2774C22.9132 59.1615 24.9971 60.0456 27.0179 60.8665C27.6495 61.1191 28.281 61.3086 28.9125 61.6243C29.2282 61.7507 29.4808 62.0033 29.7334 62.1927C30.3649 62.5085 30.9333 62.8242 31.5648 63.0768C32.8909 63.5189 34.2171 64.2135 35.6064 64.4661C36.2379 64.5924 36.9326 64.6556 37.6272 64.5924C39.0165 64.4661 40.4058 64.0241 41.6688 63.5189C42.2372 63.2663 42.8055 63.0137 43.437 62.8874C45.2684 62.5085 47.0366 61.9401 48.7417 61.2454C50.6993 60.4876 52.657 59.6035 54.4884 58.5931C55.8145 57.8353 57.1407 57.2038 58.3405 56.1934C62.0664 53.0991 65.666 49.8152 69.1392 46.4051C70.9074 44.7001 72.6757 42.9318 74.4439 41.2268C74.4439 41.2268 74.507 41.1636 74.5702 41.1636C74.8859 41.1636 75.2017 41.1005 75.3911 41.3531C75.5174 41.4794 75.6437 41.5425 75.8332 41.6688C78.9907 44.1317 82.1482 46.5946 85.3057 48.9943C87.1371 50.3836 88.9053 51.8992 90.4841 53.6674C91.6839 54.9936 93.0101 56.1934 94.5257 57.1407C95.1572 57.5196 95.7255 57.9616 96.4202 58.3405C97.4938 58.972 98.5673 59.5404 99.6409 60.1087C100.146 60.3613 100.714 60.5508 101.22 60.8034C102.988 61.7506 104.819 62.5716 106.777 63.14C107.282 63.2663 107.787 63.4557 108.292 63.582V63.5189C107.029 63.0768 105.703 62.5716 104.44 62.1296C104.44 62.1296 104.44 62.0664 104.44 62.0033C104.882 62.1296 105.261 62.2559 105.703 62.4453C105.64 62.3822 105.514 62.319 105.388 62.2559C104.503 61.9401 103.619 61.6244 102.735 61.2454C101.535 60.7402 100.399 60.1719 99.262 59.5404C97.8727 58.7194 96.4833 57.8985 95.094 57.0144C94.3362 56.5092 93.6416 56.004 93.0101 55.4356C91.7471 54.2358 90.6104 52.9096 89.4105 51.6466C89.2842 51.5203 89.2211 51.4571 89.0947 51.3308C89.2211 51.3308 89.2842 51.394 89.3473 51.4571C90.3578 52.1518 91.4313 52.7833 92.4417 53.478C94.4625 54.8041 96.4833 56.1303 98.5041 57.4564C99.5777 58.1511 100.651 58.7826 101.599 59.6035C102.546 60.4245 103.619 61.056 104.756 61.5612C105.324 61.8138 105.956 62.1296 106.524 62.3822C107.282 62.7611 107.977 63.2031 108.735 63.582C108.987 63.7083 109.303 63.7715 109.619 63.8978C109.619 63.8978 109.619 63.8346 109.682 63.8346C109.429 63.6452 109.177 63.4557 108.861 63.2663C108.987 63.2663 108.987 63.2663 109.05 63.2663C109.934 63.582 110.755 63.8346 111.639 64.1504C111.703 64.1504 111.766 64.2135 111.766 64.2135C111.703 64.403 111.892 64.403 111.955 64.403C112.334 64.4661 112.776 64.5293 113.155 64.6556C113.66 64.7819 114.102 64.9713 114.607 64.9713C117.007 65.0345 119.344 65.0345 121.743 64.5293C121.87 64.5293 121.996 64.5293 122.122 64.5293C122.438 64.5293 122.691 64.5924 123.006 64.5924C124.08 64.4661 125.154 64.2767 126.164 63.6452C127.048 63.14 127.869 62.5716 128.564 61.8138C129.258 60.9928 129.89 60.1087 130.521 59.2878C130.774 58.972 131.027 58.7194 131.405 58.53C131.784 58.3405 132.163 58.1511 132.542 57.9616C132.668 57.8985 132.795 57.8985 132.921 57.8353C133.111 57.7722 133.3 57.7722 133.426 57.6459C133.995 57.267 134.563 56.8881 135.131 56.446C135.952 55.7514 136.836 55.1199 137.594 54.3621C138.541 53.5411 139.362 52.657 140.247 51.7729C140.373 51.7097 140.436 51.5834 140.499 51.4571C140.689 51.2677 140.815 51.0151 141.067 50.8888C141.762 50.4467 142.457 49.9415 143.025 49.3732C144.288 48.1733 145.299 46.784 145.741 45.079C145.867 44.5738 145.993 44.0685 146.056 43.5633C146.183 42.7424 146.183 41.8583 146.056 41.0373C145.93 40.2795 145.804 39.5217 145.677 38.7639C145.551 38.1324 145.677 37.5641 145.741 36.9957C145.741 36.9326 145.804 36.8694 145.804 36.8694C145.867 36.9326 145.867 37.0589 145.867 37.122C145.93 37.6272 145.993 38.1324 146.12 38.6376C146.183 38.8271 146.372 39.0797 146.498 39.206C146.562 39.2691 146.814 39.2691 146.877 39.206C146.94 39.206 146.94 38.9534 146.94 38.8271C146.751 38.1324 146.625 37.4378 146.814 36.7431C146.877 36.3642 146.94 36.0485 147.004 35.6696C147.13 34.5328 147.383 33.3961 147.951 32.3857C148.077 32.1331 148.203 31.8805 148.267 31.6279C148.33 31.4385 148.393 31.249 148.393 31.0596C148.709 30.1123 148.772 29.1651 148.709 28.1547ZM8.38859 17.4822C8.26229 17.7348 8.07284 17.9874 8.00969 18.24C7.44134 19.4399 6.93613 20.5766 6.43093 21.7765C5.98888 22.7869 5.54683 23.7973 5.29422 24.934C4.78902 27.2074 4.34697 29.6071 3.84177 31.9437C3.84177 32.0068 3.84177 32.07 3.77862 32.1963H3.71547C3.58916 31.8174 3.46286 31.4385 3.33656 31.1227C3.27341 30.9964 3.27341 30.8701 3.21026 30.7438C3.21026 30.6807 3.14711 30.5544 3.08396 30.5544C2.45246 30.3649 2.57876 29.8597 2.45246 29.4177C2.01041 27.3337 2.45246 25.4392 3.39971 23.6078C4.41012 21.587 5.73628 19.8188 7.31504 18.24C7.56764 17.9874 7.88339 17.7348 8.19914 17.4191C8.26229 17.3559 8.32544 17.2928 8.32544 17.2296C8.32544 17.1665 8.32544 17.1665 8.32544 17.1033C8.57804 16.8507 8.76749 16.6613 9.0201 16.4087L9.08325 16.4718C8.83064 16.7244 8.57804 16.9139 8.32544 17.1665C8.51489 17.2296 8.45174 17.3559 8.38859 17.4822ZM20.9555 48.7417C20.6398 48.4891 20.2609 48.2365 19.9451 47.9207C18.24 46.4051 16.6613 44.8264 15.5877 42.8055C14.6405 41.0373 13.8195 39.206 13.4406 37.2483C13.3775 37.0589 13.3775 36.8694 13.4406 36.68C13.4406 36.4274 13.6301 36.3642 13.8195 36.4905C13.8827 36.4905 13.8827 36.5537 13.9458 36.5537C14.5142 37.0589 15.1457 37.5641 15.714 38.0693C15.9666 38.2587 16.0929 38.5745 16.2824 38.8271C16.7876 39.648 17.1665 40.5321 17.4191 41.4794C17.798 42.9318 18.5558 44.3211 19.2505 45.6473C19.3768 45.9631 19.5031 46.2788 19.6925 46.5314C20.0714 47.0998 20.4503 47.6681 20.8292 48.2996C20.8292 48.4259 20.8924 48.5522 20.9555 48.7417C20.9555 48.6785 20.9555 48.6785 20.9555 48.7417ZM42.2372 62.0664C40.9742 62.8242 39.7112 63.4557 38.2587 63.7715C37.1852 63.9609 36.1747 63.8978 35.1643 63.5189C33.775 63.0137 32.3857 62.3822 30.9964 61.8138C30.5544 61.6244 30.1123 61.3718 29.6703 61.1823V61.1191C30.7438 61.2454 31.8174 61.4349 32.8909 61.5612C34.9117 61.8138 36.9957 61.9401 39.0797 61.8138C40.0269 61.7507 41.0373 61.6875 41.9846 61.6243C42.174 61.6243 42.3635 61.6875 42.4898 61.6875C42.4898 61.8138 42.4266 62.0032 42.2372 62.0664ZM68.2551 32.9541C68.192 33.0804 68.1288 33.2698 68.0657 33.333C67.4342 33.775 67.0553 34.3434 66.5501 34.8486C63.6452 38.4482 60.5508 41.7951 57.1407 44.9527C54.9304 47.0366 52.5307 48.868 49.8784 50.5099C47.4787 51.9623 44.8895 52.7201 42.1109 53.0991C40.4058 53.3517 38.7008 53.4148 37.2483 53.5411C35.9853 53.478 34.9749 53.3517 33.9013 53.2885C33.333 53.2254 32.7646 53.2253 32.1963 53.2253C30.6807 53.1622 29.1651 52.9096 27.7758 52.3412C25.9444 51.6466 24.2393 50.6993 22.7237 49.3732C22.3448 49.0574 21.9659 48.7417 21.7133 48.3628C21.0187 47.2261 20.324 46.0894 19.6294 44.9527C19.061 43.9422 18.6821 42.8687 18.4295 41.6688C17.9874 39.3954 16.977 37.4378 15.3351 35.7958C14.8931 35.2906 14.5142 34.7223 14.1353 34.0908C13.8827 33.7119 13.6932 33.2698 13.4406 32.8278C13.1249 32.2594 12.9354 31.6279 12.9354 30.9333C12.8723 29.7966 13.0617 28.6599 13.3143 27.5863C13.8195 25.376 14.451 23.2289 15.272 21.145C15.9666 19.2505 17.0402 17.6085 18.3663 16.1561C18.8084 15.6509 19.4399 15.2088 20.0083 14.7668C20.7029 14.2616 21.3976 13.7564 22.1554 13.3143C22.9132 12.8723 23.7341 12.4302 24.6182 12.2408C24.934 12.1776 25.3129 12.0513 25.6286 11.925C27.5232 11.2304 29.3545 10.662 31.3122 10.2831C31.9437 10.1568 32.6383 9.96735 33.2698 9.84105C34.6591 9.6516 36.0484 9.7779 37.4378 10.0305C38.385 10.1568 39.2691 10.2831 40.2164 10.4094C41.1636 10.5989 42.1109 10.8515 43.1213 11.0409C43.437 11.1041 43.7528 11.2304 44.0685 11.2304C45.2684 11.3567 46.342 11.7987 47.3524 12.3671C48.6785 13.1249 49.9415 14.009 51.2677 14.8299C52.0255 15.3351 52.7201 15.7772 53.4148 16.2824C54.0463 16.7876 54.6147 17.3559 55.183 17.8611C56.004 18.619 56.8249 19.4399 57.709 20.2609C59.5404 22.0291 61.3086 23.7973 62.9505 25.6918C63.6452 26.5127 64.3398 27.3337 65.0345 28.1547C65.2239 28.4073 65.4765 28.5336 65.7291 28.7862C65.9186 28.9125 66.0449 29.1019 66.1712 29.2282C66.7395 29.986 67.2447 30.6807 67.7499 31.4385C68.1288 31.9437 68.4446 32.3857 68.2551 32.9541ZM128.437 14.7668C128.564 14.8299 128.627 14.8931 128.753 14.9562C129.953 16.0929 131.216 17.2296 132.29 18.4927C132.858 19.1242 133.426 19.8188 133.932 20.5135C134.879 21.7765 135.447 23.2289 136.015 24.6814C136.205 25.1234 136.458 25.6286 136.647 26.0707C136.773 26.4496 136.9 26.7653 136.963 27.1443C136.963 27.2706 136.963 27.5232 136.836 27.5863C136.773 27.6495 136.521 27.5863 136.394 27.5232C136.015 27.2706 135.637 26.9548 135.321 26.639C134.247 25.6918 133.553 24.5551 132.921 23.3552C132.668 22.85 132.542 22.3448 132.353 21.8396C131.469 19.5662 130.269 17.4822 128.879 15.5246C128.627 15.272 128.501 15.0194 128.437 14.7668C128.374 14.7668 128.374 14.8299 128.437 14.7668ZM86.3161 10.7883C86.5056 10.4094 86.695 10.0937 86.8845 9.7779C86.8845 9.7779 86.8845 9.7779 86.8845 9.71475C87.0739 9.399 87.2634 9.1464 87.516 8.95695C87.7686 8.7675 88.0212 8.57804 88.2738 8.38859C88.6527 8.13599 88.9684 7.94654 89.3473 7.69394C89.6631 7.50449 90.042 7.25189 90.3578 7.06244C90.6735 6.87298 91.0524 6.68353 91.3682 6.49408C91.7471 6.30463 92.0628 6.11518 92.4417 5.98888C92.8206 5.79943 93.1364 5.67313 93.5153 5.48368C93.7047 5.42053 93.8942 5.35738 94.0836 5.29422C94.2099 5.23107 94.2731 5.23107 94.3994 5.16792C94.4625 5.16792 94.5888 5.04162 94.652 5.04162C94.7783 4.97847 94.9046 4.91532 95.094 4.91532H95.2203C95.0309 5.04162 94.8414 5.16792 94.652 5.29422C93.389 6.17833 92.126 7.06243 90.863 7.94654C90.6104 8.13599 90.3578 8.32544 90.1683 8.57804C90.042 8.70434 89.9157 8.76749 89.7894 8.83064C89.4105 9.08325 89.0947 9.33585 88.7158 9.6516C88.3369 9.96735 87.958 10.22 87.5791 10.5357C87.0739 10.9146 86.6319 11.2935 86.1267 11.6724C86.0635 11.6724 86.0635 11.483 86.0635 11.4198C86.1267 11.1672 86.253 10.9778 86.3161 10.7883ZM126.606 61.1823C126.038 62.0033 125.28 62.6348 124.333 62.8874C123.638 63.0768 122.943 63.14 122.312 63.3294C121.743 63.4557 121.175 63.6452 120.67 63.7715C118.586 64.403 116.439 64.5293 114.292 64.4661C114.102 64.4661 113.913 64.403 113.787 64.3398V64.2767C113.913 64.2767 113.976 64.2135 114.102 64.2135C115.05 64.2767 115.997 64.0872 116.944 63.8346C117.134 63.7715 117.386 63.7715 117.576 63.7083C117.702 63.7083 117.765 63.582 117.828 63.5189C117.765 63.4557 117.639 63.3294 117.576 63.3294C117.26 63.3294 116.944 63.3294 116.691 63.3926C115.997 63.582 115.302 63.7715 114.544 63.582C113.787 63.4557 113.029 63.2663 112.271 63.0768C112.208 63.0768 112.145 63.0137 112.145 62.9505C112.46 62.9505 112.776 63.0137 113.092 63.0137C115.113 63.0768 117.197 63.2663 119.217 62.9505C121.554 62.5716 123.827 62.0033 126.038 61.2454C126.29 61.1823 126.543 61.1191 126.859 60.9928C126.669 61.056 126.669 61.1191 126.606 61.1823ZM137.215 35.2275V35.2906C137.215 36.3011 136.836 37.2483 136.647 38.2587C136.205 40.6584 135.447 42.995 134.563 45.3316C134.058 46.6577 133.363 47.9207 132.605 49.1837C132.226 49.8152 131.595 50.2573 131.09 50.6993C130.395 51.3308 129.637 51.7729 128.816 52.1518C127.301 52.8464 125.848 53.5411 124.206 53.7937C122.122 54.1095 120.038 54.1726 117.954 53.92C116.881 53.7937 115.744 53.7306 114.607 53.5411C113.155 53.3516 111.829 52.7833 110.566 52.0886C106.272 49.7521 102.167 47.0998 98.2516 44.1949C95.2835 41.9846 92.3154 39.7112 89.4737 37.3115C89.1579 37.0589 88.779 36.8063 88.4632 36.4905C86.7582 35.038 85.0531 33.5856 83.4112 32.1331C83.0955 31.8805 82.8429 31.5648 82.5271 31.249C82.4008 31.1227 82.3377 31.0596 82.2114 30.9964C82.3377 30.807 82.464 30.6175 82.6534 30.4912C84.6742 28.281 86.695 26.1338 88.7158 23.9236C89.9157 22.6606 91.1156 21.3344 92.3154 20.0083C92.8206 19.4399 93.2627 18.7453 93.831 18.1769C95.0309 16.8507 96.357 15.5877 97.5569 14.3247C97.9989 13.8195 98.6305 13.5669 99.1988 13.188C102.167 11.3567 105.451 10.4094 108.924 9.96735C110.945 9.71475 113.029 9.58845 115.05 9.84105C115.744 9.9042 116.439 9.9042 117.07 9.9042C118.649 9.96735 120.165 10.2831 121.617 10.8515C123.385 11.5461 125.027 12.4934 126.48 13.7564C126.606 13.8827 126.796 13.9458 126.922 14.0721C127.364 14.451 127.616 14.8931 127.932 15.3351C128.943 16.8507 129.953 18.3032 130.648 20.0083C130.837 20.5135 131.027 20.9555 131.153 21.4607C131.721 23.8604 132.858 25.8812 134.563 27.6495C135.131 28.2178 135.573 28.8493 135.952 29.4808C136.142 29.8597 136.394 30.2386 136.584 30.6175C137.026 31.3753 137.215 32.1963 137.342 33.0804C137.405 33.8382 137.468 34.5328 137.215 35.2275ZM144.099 44.6369C143.72 45.7105 143.151 46.7209 142.457 47.6681C142.394 47.7313 142.33 47.7944 142.267 47.8576C142.204 47.8576 142.204 47.8576 142.141 47.7944C142.141 47.6681 142.141 47.4787 142.204 47.3524C142.646 46.2157 143.088 45.1421 143.53 44.0054C143.72 43.437 143.909 42.8687 144.099 42.3635C144.099 42.3635 144.162 42.3003 144.225 42.2372C144.288 42.4898 144.288 42.6161 144.351 42.8055H144.414C144.478 42.8687 144.541 42.995 144.541 43.0581C144.478 43.6265 144.288 44.1317 144.099 44.6369ZM147.825 26.639C147.825 26.9548 147.698 27.2706 147.635 27.5863C147.572 27.9021 147.572 28.281 147.509 28.5967C147.383 29.1651 147.256 29.6703 147.13 30.2386C147.004 30.7438 146.877 31.1859 146.688 31.6911C146.688 31.7542 146.625 31.8174 146.625 31.8174H146.562V30.8701C146.562 30.6175 146.562 30.4281 146.562 30.1755C146.562 29.9229 146.625 29.7334 146.625 29.4808C146.562 29.0388 146.498 28.5336 146.372 28.0915C146.309 27.7126 146.183 27.2706 146.183 26.8285C146.183 26.639 146.246 26.4496 146.183 26.197C146.183 26.0075 146.12 25.8181 146.056 25.6286C145.993 25.2497 145.867 24.8708 145.741 24.4919C144.92 22.0291 143.657 19.8188 142.394 17.5454C142.078 16.9139 141.636 16.3455 141.194 15.7772C140.689 15.1457 140.12 14.5142 139.552 13.8827C139.426 13.7564 139.299 13.5669 139.173 13.4406L139.236 13.3775C139.299 13.3775 139.299 13.4406 139.362 13.4406C140.31 14.3247 141.194 15.2088 142.141 16.0929C142.331 16.2192 142.457 16.4087 142.583 16.5981C142.709 16.7876 142.836 16.977 142.962 17.1665C143.088 17.4191 143.215 17.6085 143.341 17.8611C143.594 18.3032 143.846 18.8084 144.099 19.2505C144.541 20.1346 145.046 21.0187 145.488 21.9028C145.867 22.6606 146.246 23.4184 146.625 24.1762C146.814 24.4919 147.004 24.8708 147.193 25.1866C147.319 25.4392 147.509 25.6918 147.635 26.0075C147.825 26.2601 147.825 26.4496 147.825 26.639Z" fill="white"/>
<path d="M170.56 29.518C168.451 29.518 166.614 29.0185 165.047 28.0195C163.493 27.0082 162.285 25.5652 161.421 23.6905C160.558 21.8158 160.126 19.565 160.126 16.938C160.126 14.2247 160.57 11.9492 161.458 10.1115C162.359 8.2615 163.592 6.86783 165.158 5.9305C166.737 4.98083 168.538 4.506 170.56 4.506C173.36 4.506 175.543 5.18433 177.109 6.541C178.688 7.89766 179.699 9.66133 180.143 11.832L175.481 12.683C175.099 11.425 174.488 10.4075 173.65 9.6305C172.811 8.8535 171.781 8.465 170.56 8.465C169.487 8.465 168.519 8.7795 167.656 9.4085C166.792 10.0252 166.102 10.9625 165.584 12.2205C165.078 13.4785 164.825 15.051 164.825 16.938C164.825 18.714 165.047 20.2433 165.491 21.526C165.948 22.8087 166.601 23.7953 167.452 24.486C168.303 25.1767 169.339 25.522 170.56 25.522C172.127 25.522 173.335 25.1088 174.186 24.2825C175.05 23.4438 175.481 22.377 175.481 21.082H180.143C180.143 22.8703 179.755 24.3935 178.978 25.6515C178.213 26.8972 177.115 27.853 175.685 28.519C174.254 29.185 172.546 29.518 170.56 29.518ZM194.454 29.518C192.321 29.518 190.434 29.0493 188.793 28.112C187.165 27.1747 185.889 25.7748 184.964 23.9125C184.039 22.0502 183.576 19.7377 183.576 16.975C183.576 14.163 184.039 11.8382 184.964 10.0005C185.889 8.1505 187.165 6.77533 188.793 5.875C190.434 4.96233 192.321 4.506 194.454 4.506C196.6 4.506 198.494 4.97467 200.134 5.912C201.774 6.837 203.057 8.2245 203.982 10.0745C204.907 11.9245 205.369 14.2247 205.369 16.975C205.369 19.7747 204.907 22.1057 203.982 23.968C203.057 25.8303 201.774 27.224 200.134 28.149C198.494 29.0617 196.6 29.518 194.454 29.518ZM194.454 25.559C196.415 25.559 197.969 24.819 199.116 23.339C200.276 21.859 200.855 19.7253 200.855 16.938C200.855 14.2493 200.276 12.1588 199.116 10.6665C197.969 9.17416 196.415 8.428 194.454 8.428C192.53 8.428 190.989 9.18033 189.829 10.685C188.67 12.1773 188.09 14.274 188.09 16.975C188.09 19.75 188.67 21.8775 189.829 23.3575C190.989 24.8252 192.53 25.559 194.454 25.559ZM210.535 4.987H218.305C220.747 4.987 222.887 5.48033 224.725 6.467C226.562 7.44133 227.993 8.82883 229.017 10.6295C230.04 12.4302 230.552 14.5577 230.552 17.012C230.552 19.4417 230.04 21.5568 229.017 23.3575C227.993 25.1458 226.562 26.5333 224.725 27.52C222.887 28.5067 220.747 29 218.305 29H210.535V4.987ZM214.901 8.946V25.078H218.305C219.859 25.078 221.197 24.7265 222.32 24.0235C223.454 23.3205 224.324 22.3647 224.928 21.156C225.545 19.935 225.853 18.5537 225.853 17.012C225.853 15.4457 225.545 14.0582 224.928 12.8495C224.324 11.6408 223.454 10.6912 222.32 10.0005C221.197 9.2975 219.859 8.946 218.305 8.946H214.901ZM235.9 29V4.987H251.329V8.761H240.266V15.088H250.663V18.862H240.266V25.189H251.329V29H235.9ZM257.652 4.987H265.422C267.864 4.987 270.004 5.48033 271.842 6.467C273.68 7.44133 275.11 8.82883 276.134 10.6295C277.158 12.4302 277.669 14.5577 277.669 17.012C277.669 19.4417 277.158 21.5568 276.134 23.3575C275.11 25.1458 273.68 26.5333 271.842 27.52C270.004 28.5067 267.864 29 265.422 29H257.652V4.987ZM262.018 8.946V25.078H265.422C266.976 25.078 268.315 24.7265 269.437 24.0235C270.572 23.3205 271.441 22.3647 272.045 21.156C272.662 19.935 272.97 18.5537 272.97 17.012C272.97 15.4457 272.662 14.0582 272.045 12.8495C271.441 11.6408 270.572 10.6912 269.437 10.0005C268.315 9.2975 266.976 8.946 265.422 8.946H262.018Z" fill="white"/>
<path d="M164.477 35.5595V56.816H175.337V58H163.108V35.5595H164.477ZM179.404 58V35.5595H180.773V58H179.404ZM188.835 58V35.5595H196.512C198.066 35.5595 199.349 35.8308 200.36 36.3735C201.384 36.9162 202.149 37.6315 202.654 38.5195C203.16 39.3952 203.413 40.3325 203.413 41.3315C203.413 42.6388 203.055 43.792 202.34 44.791C201.624 45.79 200.49 46.4498 198.936 46.7705C199.935 46.8692 200.798 47.196 201.526 47.751C202.266 48.306 202.833 48.9658 203.228 49.7305C203.622 50.4952 203.82 51.2537 203.82 52.006C203.82 52.82 203.684 53.5908 203.413 54.3185C203.154 55.0462 202.734 55.6875 202.155 56.2425C201.575 56.7852 200.817 57.2168 199.879 57.5375C198.942 57.8458 197.807 58 196.475 58H188.835ZM190.204 56.816H196.512C198.646 56.816 200.163 56.3597 201.063 55.447C201.964 54.522 202.414 53.3688 202.414 51.9875C202.414 50.5938 201.908 49.4715 200.897 48.6205C199.885 47.7695 198.424 47.344 196.512 47.344H190.204V56.816ZM190.204 36.7065V46.2155H196.475C198.079 46.2155 199.398 45.7962 200.434 44.9575C201.483 44.1065 202.007 42.8793 202.007 41.276C202.007 39.8083 201.501 38.6798 200.49 37.8905C199.478 37.1012 198.153 36.7065 196.512 36.7065H190.204ZM210.84 58V35.5595H218.147C220.577 35.5595 222.384 36.1577 223.568 37.354C224.752 38.538 225.344 40.0673 225.344 41.942C225.344 43.829 224.752 45.3707 223.568 46.567C222.384 47.751 220.577 48.343 218.147 48.343H212.209V58H210.84ZM223.901 58L216.945 48.1765H218.536L225.64 58H223.901ZM212.209 47.2145H218.166C220.04 47.2145 221.471 46.7273 222.458 45.753C223.444 44.7663 223.938 43.4837 223.938 41.905C223.938 40.2893 223.438 39.019 222.439 38.094C221.452 37.169 220.022 36.7065 218.147 36.7065H212.209V47.2145ZM229.38 58L237.187 35.5595H238.685L246.455 58H245.012L242.755 51.2475H233.172L230.786 58H229.38ZM233.524 50.045H242.311L237.908 37.3355L233.524 50.045ZM251.634 58V35.5595H258.941C261.371 35.5595 263.178 36.1577 264.362 37.354C265.546 38.538 266.138 40.0673 266.138 41.942C266.138 43.829 265.546 45.3707 264.362 46.567C263.178 47.751 261.371 48.343 258.941 48.343H253.003V58H251.634ZM264.695 58L257.739 48.1765H259.33L266.434 58H264.695ZM253.003 47.2145H258.96C260.834 47.2145 262.265 46.7273 263.252 45.753C264.238 44.7663 264.732 43.4837 264.732 41.905C264.732 40.2893 264.232 39.019 263.233 38.094C262.246 37.169 260.816 36.7065 258.941 36.7065H253.003V47.2145ZM269.47 35.5595H271.209L278.813 47.825H278.184L285.787 35.5595H287.489L279.238 48.8425V58H277.795V48.8425L269.47 35.5595Z" fill="white"/>
</g>
<defs>
<clipPath id="clip0_302_335">
<rect width="288" height="66" fill="white"/>
</clipPath>
</defs>
</svg>
